PathFileType	4	(X/Y/Z)	 s04c0103.trc
DataRate	CameraRate	NumFrames	NumMarkers	Units	OrigDataRate	OrigDataStartFrame	OrigNumFrames
200	200	6	50	mm	200	1751	2000
Frame#	Time	racr			lacr			c7			jug			rlel			rdr			llel			ldr			s2			lic			ric			lasi			rasi			rpsi			lpsi			rgt			lgt			rth1			rth2			rth3			rth4			rlfc			rmfc			rsh1			rsh2			rsh3			rsh4			rlmal			rmmal			rcal			rtoe			rmt5			lth1			lth2			lth4			lth3			llfc			lmfc			lsh1			lsh2			lsh3			lsh4			llmal			lmmal			lcal			ltoe			lmt5			SBIKE			LBIKE			RBIKE			
		X1	Y1	Z1	X2	Y2	Z2	X3	Y3	Z3	X4	Y4	Z4	X5	Y5	Z5	X6	Y6	Z6	X7	Y7	Z7	X8	Y8	Z8	X9	Y9	Z9	X10	Y10	Z10	X11	Y11	Z11	X12	Y12	Z12	X13	Y13	Z13	X14	Y14	Z14	X15	Y15	Z15	X16	Y16	Z16	X17	Y17	Z17	X18	Y18	Z18	X19	Y19	Z19	X20	Y20	Z20	X21	Y21	Z21	X22	Y22	Z22	X23	Y23	Z23	X24	Y24	Z24	X25	Y25	Z25	X26	Y26	Z26	X27	Y27	Z27	X28	Y28	Z28	X29	Y29	Z29	X30	Y30	Z30	X31	Y31	Z31	X32	Y32	Z32	X33	Y33	Z33	X34	Y34	Z34	X35	Y35	Z35	X36	Y36	Z36	X37	Y37	Z37	X38	Y38	Z38	X39	Y39	Z39	X40	Y40	Z40	X41	Y41	Z41	X42	Y42	Z42	X43	Y43	Z43	X44	Y44	Z44	X45	Y45	Z45	X46	Y46	Z46	X47	Y47	Z47	X48	Y48	Z48	X49	Y49	Z49	X50	Y50	Z50	
1751	8.7550	429.308805	1406.998316	-68.143619	471.078327	1404.013144	-366.045933	433.272875	1476.265791	-215.972321	428.608197	1324.521036	-223.396367	500.226234	1113.598464	21.338138	697.455341	910.093726	-83.022120	511.014535	1138.122132	-498.363978	707.145706	910.434259	-437.565458	-82.056051	1159.117415	-284.694903	83.326857	1191.528853	-422.841023	50.172658	1184.329396	-104.877098	123.977965	1143.422688	-376.594021	104.127901	1144.720379	-146.756099	-64.115988	1205.493546	-237.711543	-57.626477	1210.688166	-315.519757	14.309442	1123.103483	-88.288989	53.589337	1085.498271	-454.964530	152.649692	1045.750598	-73.033065	239.263364	1029.519753	-79.511306	306.476767	976.786832	-79.008828	252.150106	1059.408804	-98.829513	425.250719	890.460813	-101.050863	417.678140	868.554784	-214.571159	382.019975	773.362692	-82.144781	377.046336	683.091989	-97.185190	326.489575	613.842774	-107.764810	409.276213	676.867857	-118.824787	294.048109	465.683726	-120.840315	319.493110	473.929373	-204.163915	223.508334	442.108130	-163.316052	519.233341	387.080432	-146.299032	448.446636	372.512659	-92.868468	111.231189	1008.857879	-468.392361	185.108695	963.612453	-469.571520	210.421918	987.315650	-457.765272	227.885399	885.280423	-473.091239	308.785602	753.265089	-448.000575	332.251809	722.249884	-339.394736	247.752381	653.198582	-474.077774	210.042746	576.991922	-453.338354	137.317735	525.736307	-452.636490	232.139269	562.447718	-424.330167	38.787617	416.701309	-446.937033	35.324596	418.932113	-358.348133	-40.290232	440.268505	-406.069330	200.164931	256.608372	-406.375240	121.817093	265.993480	-469.531664	-177.830694	933.658442	-279.784873	-3.366559	85.615714	-484.749153	-15.049107	80.382035	-84.230782	
1752	8.7600	429.228077	1407.358097	-68.621739	470.573520	1404.098703	-366.656272	432.994880	1476.451951	-216.432014	428.425320	1324.737457	-223.778182	501.004954	1114.261312	21.126835	697.587348	909.879444	-83.040689	510.952527	1138.227924	-498.598352	707.110896	910.491672	-437.579268	-82.469122	1158.993410	-285.087911	83.539954	1191.274103	-422.758033	50.617330	1183.600621	-104.708877	124.399910	1143.284989	-376.408004	104.875545	1143.838387	-146.514417	-63.867510	1204.745378	-237.415607	-57.328663	1210.085517	-315.703588	14.939657	1121.326718	-88.627305	54.645130	1085.521404	-454.814279	152.788033	1042.243100	-72.496234	239.032778	1024.247443	-79.315683	305.360015	970.204242	-79.174947	252.547007	1053.935075	-98.255147	422.463820	882.033094	-101.281184	415.080186	860.230344	-215.114131	379.368643	764.692601	-82.185307	375.554417	674.391200	-97.310470	325.397039	604.551788	-107.807150	407.585559	668.335791	-118.624296	294.236699	456.377456	-120.849686	319.515266	464.831201	-204.169496	223.771045	431.913246	-163.313482	520.213642	380.382165	-146.251741	449.597241	364.928824	-92.768237	113.200857	1009.883320	-468.092104	187.824031	965.529807	-468.683065	212.643426	989.349633	-456.361706	231.620716	887.896812	-472.633999	313.666118	756.810514	-447.269943	336.484521	725.774958	-338.562656	251.643302	657.847316	-473.259935	212.702130	582.196129	-452.655804	139.194996	532.126379	-452.129904	234.482254	567.432788	-423.454821	38.874922	424.824465	-446.735618	35.423358	427.128852	-358.117929	-40.066474	449.237251	-405.959144	198.489376	263.261804	-406.344263	120.323345	273.427534	-469.441421	-177.770826	933.716230	-280.031486	-3.360470	85.593970	-484.753866	-15.045709	80.371676	-84.224349	
1753	8.7650	429.201912	1407.683458	-69.018335	471.139365	1404.850138	-368.550379	432.711031	1476.637661	-216.896528	428.295879	1324.948689	-224.146401	501.801995	1114.827634	20.985547	697.691007	909.704406	-83.064670	510.899660	1138.312802	-498.804556	707.070490	910.569440	-437.539227	-82.176066	1158.654888	-284.898366	83.792674	1191.060087	-422.660678	51.316921	1182.820737	-104.454140	124.810512	1143.177829	-376.241920	105.740844	1143.186492	-146.256785	-63.497279	1204.084784	-237.138990	-57.052991	1209.318402	-315.349536	15.627379	1119.693096	-88.940966	55.689973	1085.529591	-454.633139	152.804568	1038.070973	-72.496246	238.741762	1018.588537	-79.125219	304.044365	963.322180	-79.336901	252.924577	1048.336607	-97.715441	419.600302	873.529799	-101.470482	412.215675	851.911952	-215.430720	376.686356	755.836811	-82.228332	373.648615	665.477796	-97.260012	324.174868	595.224796	-107.808060	405.782375	659.715624	-118.561988	294.231177	446.949085	-120.948903	319.283024	455.675146	-204.203360	223.855049	421.706185	-163.202154	520.827077	373.464738	-146.091319	450.407639	357.164253	-92.645123	115.218142	1010.826626	-467.660078	190.420386	967.529841	-467.976156	214.865618	991.590795	-455.310599	235.299781	890.494930	-472.053853	318.515216	760.359882	-446.515219	340.713320	729.396835	-337.697779	255.449766	662.513290	-472.418349	215.295020	587.572186	-451.923971	141.052870	538.535450	-451.619070	236.724787	572.495889	-422.566384	39.075063	432.946264	-446.556530	36.232940	435.030906	-358.064756	-39.704422	458.125706	-405.817254	197.212993	270.116668	-406.219267	119.103801	281.112796	-469.402849	-177.716081	933.811502	-280.366086	-3.360956	85.569997	-484.756583	-15.044942	80.378368	-84.248725	
1754	8.7700	429.253465	1407.981874	-69.437062	470.847585	1405.024902	-369.321863	432.457581	1476.863742	-217.418516	428.168440	1325.222643	-224.527691	502.503185	1115.422002	20.785331	697.798042	909.557673	-83.057323	510.841359	1138.355863	-498.958615	707.015386	910.659449	-437.458135	-81.947064	1158.509206	-284.422672	83.931526	1190.714276	-422.382095	52.023887	1182.096714	-104.281545	125.247495	1143.102861	-376.072444	106.615471	1142.414508	-146.158746	-63.160878	1203.628165	-236.839661	-56.735450	1208.988223	-314.918002	16.346734	1118.106691	-89.283500	56.704113	1085.579322	-454.454430	152.995870	1034.404103	-71.918144	238.441636	1012.892277	-78.860658	302.596828	956.263564	-79.552123	253.192432	1042.500837	-97.095890	416.552888	864.891916	-101.686149	409.275770	843.214022	-215.365870	373.932779	746.855014	-82.210631	371.754232	656.434749	-97.261813	322.927921	585.806031	-107.574536	403.849435	651.003718	-118.568119	293.960490	437.464812	-121.055156	318.971088	446.651245	-204.125090	223.680672	412.046202	-162.529205	521.090372	366.370885	-145.928982	450.929699	349.261733	-92.583405	117.160937	1011.788574	-467.212416	192.913416	969.457052	-467.301528	216.968228	993.836953	-454.323607	238.878478	893.116214	-471.581904	323.329890	764.237023	-445.760102	344.980137	733.179082	-336.881880	259.227630	667.376692	-471.670057	218.042057	593.053443	-451.213597	142.976188	545.124570	-451.202949	239.057927	577.518932	-421.856696	39.414653	441.226541	-446.372976	36.576753	443.476854	-357.813201	-39.260440	466.939057	-405.519650	196.251693	277.370014	-406.156454	118.306935	288.957850	-469.329273	-177.666478	933.787861	-280.372980	-3.369933	85.573315	-484.766479	-15.048389	80.372046	-84.234910	
1755	8.7750	429.319488	1408.295183	-69.903759	470.401115	1405.174181	-370.090330	432.307196	1477.121487	-217.936788	428.129197	1325.576437	-224.897292	503.342887	1115.813903	20.315192	697.921336	909.427652	-83.092228	510.785437	1138.347966	-499.059432	707.038118	910.744156	-437.444812	-81.515516	1158.089392	-284.090231	84.106861	1190.514550	-422.157339	52.892486	1181.390992	-104.030315	125.648275	1143.068422	-375.954216	107.536307	1141.725624	-145.910180	-62.746718	1203.124796	-236.330689	-56.444033	1208.556512	-313.642252	17.166247	1116.572345	-89.595932	57.685257	1085.657042	-454.207866	152.876682	1030.054692	-71.658535	238.014214	1007.093539	-78.393730	300.948811	949.063566	-79.617917	253.395772	1036.432688	-96.430839	413.248146	856.157185	-101.823131	406.043338	834.573660	-215.436649	371.080392	737.707789	-82.025041	369.831517	647.244221	-97.215043	321.547005	576.261084	-107.542387	401.819835	642.091389	-118.664213	293.397237	428.036586	-121.010322	318.364546	437.381534	-204.122309	223.673756	401.034341	-163.382521	521.080654	359.126164	-145.868959	451.153643	341.152401	-92.542240	118.987511	1012.708143	-466.790206	195.354778	971.472501	-466.601673	218.965351	996.112497	-453.445996	242.396227	895.795573	-471.023001	328.357773	768.329413	-444.901079	349.175250	737.013210	-336.013652	262.912293	672.315338	-470.851624	220.726477	598.612812	-450.571643	145.021233	551.707172	-450.744664	241.406477	582.807677	-421.133900	39.922824	449.331585	-446.050393	37.162859	451.778240	-357.515050	-38.754419	475.850453	-405.320154	195.691893	284.917190	-406.179835	117.774797	297.048557	-469.319659	-177.671643	933.789751	-280.236211	-3.348206	85.570052	-484.756208	-15.041128	80.373108	-84.235673	
1756	8.7800	429.420416	1408.660767	-70.379109	470.144876	1405.299287	-370.845801	432.215565	1477.441643	-218.456285	428.205641	1325.862591	-225.296662	504.032482	1116.281866	20.094734	698.006904	909.288466	-83.148753	510.738001	1138.304365	-499.138562	707.081753	910.869918	-437.505722	-80.998680	1157.727644	-283.683064	84.295021	1190.324062	-421.900458	53.757517	1180.833999	-103.816319	126.044398	1143.052310	-375.813731	108.471094	1141.056506	-145.735797	-62.296721	1202.739545	-235.772557	-56.038241	1208.011061	-313.311242	18.000283	1115.108837	-89.880398	58.626456	1085.840006	-454.004486	152.403437	1025.392206	-72.122465	237.457311	1001.236841	-77.872934	299.093198	941.750121	-79.619635	253.517467	1030.279125	-95.747915	409.736265	847.318811	-101.913031	402.565159	825.862349	-215.483593	368.421066	728.556800	-81.988673	367.895533	638.118305	-97.296883	320.118422	566.723450	-107.586593	400.364318	633.400971	-118.802795	292.420022	418.284322	-120.959427	317.962824	428.737946	-203.748655	223.142581	391.097816	-163.320611	520.894361	351.367382	-145.734579	451.025729	332.896870	-92.543403	120.780593	1013.713079	-466.303066	197.685352	973.556190	-466.002312	220.924176	998.401483	-452.634565	245.785562	898.528908	-470.484921	333.046818	772.177497	-444.188385	353.380143	740.928779	-335.245657	266.677925	677.415576	-469.939732	223.295579	604.169480	-449.836704	147.044694	558.431139	-450.211039	243.900607	588.008439	-420.983840	40.602951	457.734508	-445.855289	37.869506	460.250740	-357.218559	-38.124399	484.638572	-405.079940	195.508917	292.798684	-406.161441	117.633686	305.286033	-469.233073	-177.690176	933.786797	-280.057601	-3.349203	85.554228	-484.753559	-15.040363	80.369401	-84.225136	
